<svg xmlns="http://www.w3.org/2000/svg" xmlns:xlink="http://www.w3.org/1999/xlink" width="50" zoomAndPan="magnify" viewBox="0 0 37.5 37.499999" height="50" preserveAspectRatio="xMidYMid meet" version="1.0"><defs><clipPath id="efd160d496"><path d="M 9.695312 5.996094 L 20.796875 5.996094 L 20.796875 17.097656 L 9.695312 17.097656 Z M 9.695312 5.996094 " clip-rule="nonzero"/></clipPath><clipPath id="4932877fdf"><path d="M 15.246094 5.996094 C 12.179688 5.996094 9.695312 8.480469 9.695312 11.546875 C 9.695312 14.613281 12.179688 17.097656 15.246094 17.097656 C 18.3125 17.097656 20.796875 14.613281 20.796875 11.546875 C 20.796875 8.480469 18.3125 5.996094 15.246094 5.996094 Z M 15.246094 5.996094 " clip-rule="nonzero"/></clipPath><clipPath id="80fa698f16"><path d="M 0 0 L 37.007812 0 L 37.007812 37.007812 L 0 37.007812 Z M 0 0 " clip-rule="nonzero"/></clipPath></defs><g clip-path="url(#efd160d496)"><g clip-path="url(#4932877fdf)"><path fill="#e0f2e2" d="M 9.695312 5.996094 L 20.796875 5.996094 L 20.796875 17.097656 L 9.695312 17.097656 Z M 9.695312 5.996094 " fill-opacity="1" fill-rule="nonzero"/></g></g><path fill="#00d300" d="M 18.503906 36.960938 C 8.3125 36.960938 0.046875 28.699219 0.046875 18.503906 C 0.046875 8.3125 8.3125 0.046875 18.503906 0.046875 C 28.699219 0.046875 36.960938 8.3125 36.960938 18.503906 C 36.960938 28.699219 28.699219 36.960938 18.503906 36.960938 Z M 18.503906 36.960938 " fill-opacity="1" fill-rule="nonzero"/><g clip-path="url(#80fa698f16)"><path stroke-linecap="butt" transform="matrix(0.0967745, 0, 0, 0.0967745, 0.0000005, 0)" fill="none" stroke-linejoin="miter" d="M 191.20637 381.928377 C 85.895534 381.928377 0.484368 296.557577 0.484368 191.206375 C 0.484368 85.895539 85.895534 0.484373 191.20637 0.484373 C 296.557571 0.484373 381.928372 85.895539 381.928372 191.206375 C 381.928372 296.557577 296.557571 381.928377 191.20637 381.928377 Z M 191.20637 381.928377 " stroke="#3fb24f" stroke-width="1" stroke-opacity="1" stroke-miterlimit="10"/></g><path fill="#ffffff" d="M 14.730469 30.019531 L 6.773438 19.6875 L 9.839844 17.324219 L 14.835938 23.816406 L 27.214844 8.859375 L 30.195312 11.328125 Z M 14.730469 30.019531 " fill-opacity="1" fill-rule="nonzero"/></svg>