<svg xmlns="http://www.w3.org/2000/svg" xmlns:xlink="http://www.w3.org/1999/xlink" width="50" zoomAndPan="magnify" viewBox="0 0 37.5 37.499999" height="50" preserveAspectRatio="xMidYMid meet" version="1.0"><defs><clipPath id="c83742b815"><path d="M 9.695312 5.996094 L 20.796875 5.996094 L 20.796875 17.097656 L 9.695312 17.097656 Z M 9.695312 5.996094 " clip-rule="nonzero"/></clipPath><clipPath id="a8620f0e21"><path d="M 15.246094 5.996094 C 12.179688 5.996094 9.695312 8.480469 9.695312 11.546875 C 9.695312 14.613281 12.179688 17.097656 15.246094 17.097656 C 18.3125 17.097656 20.796875 14.613281 20.796875 11.546875 C 20.796875 8.480469 18.3125 5.996094 15.246094 5.996094 Z M 15.246094 5.996094 " clip-rule="nonzero"/></clipPath><clipPath id="cd77f36e00"><path d="M 0 0 L 37.007812 0 L 37.007812 37.007812 L 0 37.007812 Z M 0 0 " clip-rule="nonzero"/></clipPath></defs><g clip-path="url(#c83742b815)"><g clip-path="url(#a8620f0e21)"><path fill="#e0f2e2" d="M 9.695312 5.996094 L 20.796875 5.996094 L 20.796875 17.097656 L 9.695312 17.097656 Z M 9.695312 5.996094 " fill-opacity="1" fill-rule="nonzero"/></g></g><g clip-path="url(#cd77f36e00)"><path fill="#ff4397" d="M 18.503906 0 C 8.285156 0 0 8.285156 0 18.503906 C 0 28.722656 8.285156 37.007812 18.503906 37.007812 C 28.722656 37.007812 37.007812 28.722656 37.007812 18.503906 C 37.007812 8.285156 28.722656 0 18.503906 0 Z M 28.917969 15.648438 L 18.089844 26.472656 C 17.570312 26.996094 16.863281 27.289062 16.125 27.289062 C 15.398438 27.289062 14.691406 26.996094 14.171875 26.472656 L 8.761719 21.066406 C 7.675781 19.980469 7.675781 18.230469 8.761719 17.144531 C 9.847656 16.070312 11.585938 16.070312 12.671875 17.144531 L 16.125 20.609375 L 24.996094 11.738281 C 26.082031 10.652344 27.832031 10.652344 28.917969 11.738281 C 29.992188 12.8125 29.992188 14.5625 28.917969 15.648438 Z M 28.917969 15.648438 " fill-opacity="1" fill-rule="nonzero"/></g><path fill="#ffffff" d="M 28.917969 15.648438 L 18.089844 26.472656 C 17.570312 26.996094 16.863281 27.289062 16.125 27.289062 C 15.398438 27.289062 14.691406 26.996094 14.171875 26.472656 L 8.761719 21.066406 C 7.675781 19.980469 7.675781 18.230469 8.761719 17.144531 C 9.847656 16.070312 11.585938 16.070312 12.671875 17.144531 L 16.125 20.609375 L 24.996094 11.738281 C 26.082031 10.652344 27.832031 10.652344 28.917969 11.738281 C 29.992188 12.8125 29.992188 14.5625 28.917969 15.648438 Z M 28.917969 15.648438 " fill-opacity="1" fill-rule="nonzero"/></svg>